<mxfile host="app.diagrams.net" agent="Mozilla/5.0 (Windows NT 10.0; Win64; x64; rv:131.0) Gecko/20100101 Firefox/131.0" version="24.7.17">
  <diagram name="Сторінка-1" id="Ex2uXfqcO_D-MN6O1ld1">
    <mxGraphModel dx="794" dy="495" grid="0" gridSize="10" guides="1" tooltips="1" connect="1" arrows="1" fold="1" page="1" pageScale="1" pageWidth="827" pageHeight="1169" math="0" shadow="0">
      <root>
        <mxCell id="0" />
        <mxCell id="1" parent="0" />
        <mxCell id="A67gDG7ZLTh7L_kdWk-R-115" style="edgeStyle=orthogonalEdgeStyle;rounded=0;orthogonalLoop=1;jettySize=auto;html=1;exitX=0.5;exitY=1;exitDx=0;exitDy=0;entryX=0.5;entryY=0;entryDx=0;entryDy=0;" parent="1" source="A67gDG7ZLTh7L_kdWk-R-1" target="A67gDG7ZLTh7L_kdWk-R-2" edge="1">
          <mxGeometry relative="1" as="geometry" />
        </mxCell>
        <mxCell id="A67gDG7ZLTh7L_kdWk-R-1" value="Start" style="ellipse;whiteSpace=wrap;html=1;" parent="1" vertex="1">
          <mxGeometry x="360" y="30" width="100" height="50" as="geometry" />
        </mxCell>
        <mxCell id="A67gDG7ZLTh7L_kdWk-R-116" style="edgeStyle=orthogonalEdgeStyle;rounded=0;orthogonalLoop=1;jettySize=auto;html=1;exitX=0.5;exitY=1;exitDx=0;exitDy=0;entryX=0.5;entryY=0;entryDx=0;entryDy=0;" parent="1" source="A67gDG7ZLTh7L_kdWk-R-2" target="A67gDG7ZLTh7L_kdWk-R-3" edge="1">
          <mxGeometry relative="1" as="geometry" />
        </mxCell>
        <mxCell id="A67gDG7ZLTh7L_kdWk-R-2" value="input weather" style="shape=parallelogram;perimeter=parallelogramPerimeter;whiteSpace=wrap;html=1;fixedSize=1;" parent="1" vertex="1">
          <mxGeometry x="350" y="100" width="120" height="40" as="geometry" />
        </mxCell>
        <mxCell id="A67gDG7ZLTh7L_kdWk-R-117" style="edgeStyle=orthogonalEdgeStyle;rounded=0;orthogonalLoop=1;jettySize=auto;html=1;exitX=0.5;exitY=1;exitDx=0;exitDy=0;entryX=0.5;entryY=0;entryDx=0;entryDy=0;" parent="1" source="A67gDG7ZLTh7L_kdWk-R-3" target="A67gDG7ZLTh7L_kdWk-R-12" edge="1">
          <mxGeometry relative="1" as="geometry" />
        </mxCell>
        <mxCell id="A67gDG7ZLTh7L_kdWk-R-119" style="edgeStyle=orthogonalEdgeStyle;rounded=0;orthogonalLoop=1;jettySize=auto;html=1;exitX=1;exitY=0.5;exitDx=0;exitDy=0;" parent="1" source="A67gDG7ZLTh7L_kdWk-R-3" target="A67gDG7ZLTh7L_kdWk-R-8" edge="1">
          <mxGeometry relative="1" as="geometry" />
        </mxCell>
        <mxCell id="A67gDG7ZLTh7L_kdWk-R-3" value="&lt;p data-pm-slice=&quot;1 1 []&quot;&gt;if weather != sunny &amp;amp;&amp;amp;&amp;nbsp; rainy &amp;amp;&amp;amp; cloudy &amp;amp;&amp;amp; snowy &amp;amp;&amp;amp; windy&lt;/p&gt;" style="rhombus;whiteSpace=wrap;html=1;" parent="1" vertex="1">
          <mxGeometry x="311.87" y="160" width="196.25" height="80" as="geometry" />
        </mxCell>
        <mxCell id="A67gDG7ZLTh7L_kdWk-R-120" style="edgeStyle=orthogonalEdgeStyle;rounded=0;orthogonalLoop=1;jettySize=auto;html=1;exitX=1;exitY=0.5;exitDx=0;exitDy=0;entryX=1;entryY=0.5;entryDx=0;entryDy=0;" parent="1" source="A67gDG7ZLTh7L_kdWk-R-8" target="A67gDG7ZLTh7L_kdWk-R-104" edge="1">
          <mxGeometry relative="1" as="geometry">
            <mxPoint x="810" y="880" as="targetPoint" />
            <Array as="points">
              <mxPoint x="810" y="200" />
              <mxPoint x="810" y="865" />
            </Array>
          </mxGeometry>
        </mxCell>
        <mxCell id="A67gDG7ZLTh7L_kdWk-R-8" value="output &quot;Invalid input&quot;" style="shape=parallelogram;perimeter=parallelogramPerimeter;whiteSpace=wrap;html=1;fixedSize=1;" parent="1" vertex="1">
          <mxGeometry x="530" y="175" width="150" height="50" as="geometry" />
        </mxCell>
        <mxCell id="A67gDG7ZLTh7L_kdWk-R-9" value="&lt;p data-pm-slice=&quot;1 1 []&quot;&gt;if weather == rainy | | snowy &lt;br&gt;&lt;/p&gt;" style="rhombus;whiteSpace=wrap;html=1;" parent="1" vertex="1">
          <mxGeometry x="322.25" y="320" width="171.72" height="70" as="geometry" />
        </mxCell>
        <mxCell id="A67gDG7ZLTh7L_kdWk-R-11" value="Output &quot;Ні&quot;" style="shape=parallelogram;perimeter=parallelogramPerimeter;whiteSpace=wrap;html=1;fixedSize=1;" parent="1" vertex="1">
          <mxGeometry x="433.32" y="400" width="103.33" height="38.75" as="geometry" />
        </mxCell>
        <mxCell id="A67gDG7ZLTh7L_kdWk-R-118" style="edgeStyle=orthogonalEdgeStyle;rounded=0;orthogonalLoop=1;jettySize=auto;html=1;exitX=0.5;exitY=1;exitDx=0;exitDy=0;entryX=0.5;entryY=0;entryDx=0;entryDy=0;" parent="1" source="A67gDG7ZLTh7L_kdWk-R-12" target="A67gDG7ZLTh7L_kdWk-R-9" edge="1">
          <mxGeometry relative="1" as="geometry" />
        </mxCell>
        <mxCell id="A67gDG7ZLTh7L_kdWk-R-12" value="&lt;div&gt;Output&amp;nbsp;&lt;/div&gt;&lt;div&gt;&quot;Чи брати куртку?&quot;&lt;/div&gt;" style="shape=parallelogram;perimeter=parallelogramPerimeter;whiteSpace=wrap;html=1;fixedSize=1;" parent="1" vertex="1">
          <mxGeometry x="341.45" y="250" width="133.33" height="50" as="geometry" />
        </mxCell>
        <mxCell id="A67gDG7ZLTh7L_kdWk-R-13" value="Output &quot;Так&quot;" style="shape=parallelogram;perimeter=parallelogramPerimeter;whiteSpace=wrap;html=1;fixedSize=1;" parent="1" vertex="1">
          <mxGeometry x="280" y="400" width="103.33" height="38.75" as="geometry" />
        </mxCell>
        <mxCell id="A67gDG7ZLTh7L_kdWk-R-14" style="edgeStyle=orthogonalEdgeStyle;rounded=0;orthogonalLoop=1;jettySize=auto;html=1;exitX=0;exitY=1;exitDx=0;exitDy=0;entryX=0.69;entryY=0.08;entryDx=0;entryDy=0;entryPerimeter=0;" parent="1" source="A67gDG7ZLTh7L_kdWk-R-9" target="A67gDG7ZLTh7L_kdWk-R-13" edge="1">
          <mxGeometry relative="1" as="geometry" />
        </mxCell>
        <mxCell id="A67gDG7ZLTh7L_kdWk-R-15" style="edgeStyle=orthogonalEdgeStyle;rounded=0;orthogonalLoop=1;jettySize=auto;html=1;exitX=1;exitY=1;exitDx=0;exitDy=0;entryX=0.383;entryY=0;entryDx=0;entryDy=0;entryPerimeter=0;" parent="1" source="A67gDG7ZLTh7L_kdWk-R-9" target="A67gDG7ZLTh7L_kdWk-R-11" edge="1">
          <mxGeometry relative="1" as="geometry" />
        </mxCell>
        <mxCell id="A67gDG7ZLTh7L_kdWk-R-55" style="edgeStyle=orthogonalEdgeStyle;rounded=0;orthogonalLoop=1;jettySize=auto;html=1;entryX=0.5;entryY=0;entryDx=0;entryDy=0;" parent="1" source="A67gDG7ZLTh7L_kdWk-R-18" target="A67gDG7ZLTh7L_kdWk-R-22" edge="1">
          <mxGeometry relative="1" as="geometry">
            <mxPoint x="130" y="496.71500000000015" as="targetPoint" />
          </mxGeometry>
        </mxCell>
        <mxCell id="A67gDG7ZLTh7L_kdWk-R-18" value="Output &quot;Рекомендація щодо активності:&quot;" style="shape=parallelogram;perimeter=parallelogramPerimeter;whiteSpace=wrap;html=1;fixedSize=1;" parent="1" vertex="1">
          <mxGeometry x="315.85" y="470" width="178.12" height="53.43" as="geometry" />
        </mxCell>
        <mxCell id="A67gDG7ZLTh7L_kdWk-R-20" style="edgeStyle=orthogonalEdgeStyle;rounded=0;orthogonalLoop=1;jettySize=auto;html=1;exitX=0.5;exitY=1;exitDx=0;exitDy=0;entryX=0.93;entryY=0;entryDx=0;entryDy=0;entryPerimeter=0;" parent="1" source="A67gDG7ZLTh7L_kdWk-R-11" target="A67gDG7ZLTh7L_kdWk-R-18" edge="1">
          <mxGeometry relative="1" as="geometry" />
        </mxCell>
        <mxCell id="A67gDG7ZLTh7L_kdWk-R-21" style="edgeStyle=orthogonalEdgeStyle;rounded=0;orthogonalLoop=1;jettySize=auto;html=1;exitX=0.75;exitY=1;exitDx=0;exitDy=0;entryX=0.2;entryY=0;entryDx=0;entryDy=0;entryPerimeter=0;" parent="1" source="A67gDG7ZLTh7L_kdWk-R-13" target="A67gDG7ZLTh7L_kdWk-R-18" edge="1">
          <mxGeometry relative="1" as="geometry" />
        </mxCell>
        <mxCell id="A67gDG7ZLTh7L_kdWk-R-56" style="edgeStyle=orthogonalEdgeStyle;rounded=0;orthogonalLoop=1;jettySize=auto;html=1;" parent="1" source="A67gDG7ZLTh7L_kdWk-R-22" target="A67gDG7ZLTh7L_kdWk-R-43" edge="1">
          <mxGeometry relative="1" as="geometry" />
        </mxCell>
        <mxCell id="A67gDG7ZLTh7L_kdWk-R-60" style="edgeStyle=orthogonalEdgeStyle;rounded=0;orthogonalLoop=1;jettySize=auto;html=1;exitX=0.5;exitY=1;exitDx=0;exitDy=0;entryX=0.5;entryY=0;entryDx=0;entryDy=0;" parent="1" source="A67gDG7ZLTh7L_kdWk-R-22" target="A67gDG7ZLTh7L_kdWk-R-23" edge="1">
          <mxGeometry relative="1" as="geometry" />
        </mxCell>
        <mxCell id="A67gDG7ZLTh7L_kdWk-R-22" value="&lt;p data-pm-slice=&quot;1 1 []&quot;&gt;if weather == sunny &lt;br&gt;&lt;/p&gt;" style="rhombus;whiteSpace=wrap;html=1;" parent="1" vertex="1">
          <mxGeometry x="72.26" y="548" width="125.09" height="50.99" as="geometry" />
        </mxCell>
        <mxCell id="A67gDG7ZLTh7L_kdWk-R-61" style="edgeStyle=orthogonalEdgeStyle;rounded=0;orthogonalLoop=1;jettySize=auto;html=1;exitX=0.5;exitY=1;exitDx=0;exitDy=0;entryX=0.5;entryY=0;entryDx=0;entryDy=0;" parent="1" source="A67gDG7ZLTh7L_kdWk-R-23" target="A67gDG7ZLTh7L_kdWk-R-24" edge="1">
          <mxGeometry relative="1" as="geometry" />
        </mxCell>
        <mxCell id="A67gDG7ZLTh7L_kdWk-R-23" value="&lt;div&gt;Output&amp;nbsp;&lt;/div&gt;&lt;div&gt;&quot;Чудовий день для пікніка!&quot;&lt;/div&gt;" style="shape=parallelogram;perimeter=parallelogramPerimeter;whiteSpace=wrap;html=1;fixedSize=1;" parent="1" vertex="1">
          <mxGeometry x="66.99999999999999" y="610.74" width="135.6" height="40" as="geometry" />
        </mxCell>
        <mxCell id="A67gDG7ZLTh7L_kdWk-R-72" style="edgeStyle=orthogonalEdgeStyle;rounded=0;orthogonalLoop=1;jettySize=auto;html=1;exitX=0.5;exitY=1;exitDx=0;exitDy=0;entryX=0.5;entryY=0;entryDx=0;entryDy=0;" parent="1" source="A67gDG7ZLTh7L_kdWk-R-24" target="A67gDG7ZLTh7L_kdWk-R-71" edge="1">
          <mxGeometry relative="1" as="geometry" />
        </mxCell>
        <mxCell id="A67gDG7ZLTh7L_kdWk-R-24" value="shoes_choice = 1" style="rounded=0;whiteSpace=wrap;html=1;" parent="1" vertex="1">
          <mxGeometry x="93.67999999999999" y="660.74" width="82.24" height="30" as="geometry" />
        </mxCell>
        <mxCell id="A67gDG7ZLTh7L_kdWk-R-57" style="edgeStyle=orthogonalEdgeStyle;rounded=0;orthogonalLoop=1;jettySize=auto;html=1;exitX=1;exitY=0.5;exitDx=0;exitDy=0;entryX=0;entryY=0.5;entryDx=0;entryDy=0;" parent="1" source="A67gDG7ZLTh7L_kdWk-R-43" target="A67gDG7ZLTh7L_kdWk-R-46" edge="1">
          <mxGeometry relative="1" as="geometry" />
        </mxCell>
        <mxCell id="A67gDG7ZLTh7L_kdWk-R-63" style="edgeStyle=orthogonalEdgeStyle;rounded=0;orthogonalLoop=1;jettySize=auto;html=1;exitX=0.5;exitY=1;exitDx=0;exitDy=0;entryX=0.5;entryY=0;entryDx=0;entryDy=0;" parent="1" source="A67gDG7ZLTh7L_kdWk-R-43" target="A67gDG7ZLTh7L_kdWk-R-44" edge="1">
          <mxGeometry relative="1" as="geometry" />
        </mxCell>
        <mxCell id="A67gDG7ZLTh7L_kdWk-R-43" value="&lt;p data-pm-slice=&quot;1 1 []&quot;&gt;if weather == rainy&lt;br&gt;&lt;/p&gt;" style="rhombus;whiteSpace=wrap;html=1;" parent="1" vertex="1">
          <mxGeometry x="229.20999999999998" y="548" width="125.09" height="50.99" as="geometry" />
        </mxCell>
        <mxCell id="A67gDG7ZLTh7L_kdWk-R-64" style="edgeStyle=orthogonalEdgeStyle;rounded=0;orthogonalLoop=1;jettySize=auto;html=1;exitX=0.5;exitY=1;exitDx=0;exitDy=0;entryX=0.5;entryY=0;entryDx=0;entryDy=0;" parent="1" source="A67gDG7ZLTh7L_kdWk-R-44" target="A67gDG7ZLTh7L_kdWk-R-45" edge="1">
          <mxGeometry relative="1" as="geometry" />
        </mxCell>
        <mxCell id="A67gDG7ZLTh7L_kdWk-R-44" value="&lt;div&gt;Output&amp;nbsp;&lt;/div&gt;&lt;div&gt;&quot;Ідеальна погода для книги!&quot;&lt;/div&gt;" style="shape=parallelogram;perimeter=parallelogramPerimeter;whiteSpace=wrap;html=1;fixedSize=1;" parent="1" vertex="1">
          <mxGeometry x="223.95" y="610.74" width="135.6" height="40" as="geometry" />
        </mxCell>
        <mxCell id="A67gDG7ZLTh7L_kdWk-R-73" style="edgeStyle=orthogonalEdgeStyle;rounded=0;orthogonalLoop=1;jettySize=auto;html=1;exitX=0.5;exitY=1;exitDx=0;exitDy=0;" parent="1" source="A67gDG7ZLTh7L_kdWk-R-45" edge="1">
          <mxGeometry relative="1" as="geometry">
            <mxPoint x="292" y="710" as="targetPoint" />
          </mxGeometry>
        </mxCell>
        <mxCell id="A67gDG7ZLTh7L_kdWk-R-45" value="shoes_choice = 2" style="rounded=0;whiteSpace=wrap;html=1;" parent="1" vertex="1">
          <mxGeometry x="250.63" y="660.74" width="82.24" height="30" as="geometry" />
        </mxCell>
        <mxCell id="A67gDG7ZLTh7L_kdWk-R-58" style="edgeStyle=orthogonalEdgeStyle;rounded=0;orthogonalLoop=1;jettySize=auto;html=1;exitX=1;exitY=0.5;exitDx=0;exitDy=0;entryX=0;entryY=0.5;entryDx=0;entryDy=0;" parent="1" source="A67gDG7ZLTh7L_kdWk-R-46" target="A67gDG7ZLTh7L_kdWk-R-49" edge="1">
          <mxGeometry relative="1" as="geometry" />
        </mxCell>
        <mxCell id="A67gDG7ZLTh7L_kdWk-R-65" style="edgeStyle=orthogonalEdgeStyle;rounded=0;orthogonalLoop=1;jettySize=auto;html=1;exitX=0.5;exitY=1;exitDx=0;exitDy=0;" parent="1" source="A67gDG7ZLTh7L_kdWk-R-46" edge="1">
          <mxGeometry relative="1" as="geometry">
            <mxPoint x="437" y="610" as="targetPoint" />
          </mxGeometry>
        </mxCell>
        <mxCell id="A67gDG7ZLTh7L_kdWk-R-46" value="&lt;p data-pm-slice=&quot;1 1 []&quot;&gt;if weather == cloudy&lt;br&gt;&lt;/p&gt;" style="rhombus;whiteSpace=wrap;html=1;" parent="1" vertex="1">
          <mxGeometry x="374.81" y="548" width="125.09" height="50.99" as="geometry" />
        </mxCell>
        <mxCell id="A67gDG7ZLTh7L_kdWk-R-66" style="edgeStyle=orthogonalEdgeStyle;rounded=0;orthogonalLoop=1;jettySize=auto;html=1;exitX=0.5;exitY=1;exitDx=0;exitDy=0;entryX=0.5;entryY=0;entryDx=0;entryDy=0;" parent="1" source="A67gDG7ZLTh7L_kdWk-R-47" target="A67gDG7ZLTh7L_kdWk-R-48" edge="1">
          <mxGeometry relative="1" as="geometry" />
        </mxCell>
        <mxCell id="A67gDG7ZLTh7L_kdWk-R-47" value="&lt;div&gt;Output&amp;nbsp;&lt;/div&gt;&lt;div&gt;&quot;Може, відвідати музей?&quot;&lt;/div&gt;" style="shape=parallelogram;perimeter=parallelogramPerimeter;whiteSpace=wrap;html=1;fixedSize=1;" parent="1" vertex="1">
          <mxGeometry x="369.55" y="610.74" width="135.6" height="40" as="geometry" />
        </mxCell>
        <mxCell id="A67gDG7ZLTh7L_kdWk-R-76" style="edgeStyle=orthogonalEdgeStyle;rounded=0;orthogonalLoop=1;jettySize=auto;html=1;exitX=0.5;exitY=1;exitDx=0;exitDy=0;" parent="1" source="A67gDG7ZLTh7L_kdWk-R-48" edge="1">
          <mxGeometry relative="1" as="geometry">
            <mxPoint x="437" y="710" as="targetPoint" />
          </mxGeometry>
        </mxCell>
        <mxCell id="A67gDG7ZLTh7L_kdWk-R-48" value="shoes_choice = 3" style="rounded=0;whiteSpace=wrap;html=1;" parent="1" vertex="1">
          <mxGeometry x="396.23" y="660.74" width="82.24" height="30" as="geometry" />
        </mxCell>
        <mxCell id="A67gDG7ZLTh7L_kdWk-R-59" style="edgeStyle=orthogonalEdgeStyle;rounded=0;orthogonalLoop=1;jettySize=auto;html=1;exitX=1;exitY=0.5;exitDx=0;exitDy=0;entryX=0;entryY=0.5;entryDx=0;entryDy=0;" parent="1" source="A67gDG7ZLTh7L_kdWk-R-49" target="A67gDG7ZLTh7L_kdWk-R-52" edge="1">
          <mxGeometry relative="1" as="geometry" />
        </mxCell>
        <mxCell id="A67gDG7ZLTh7L_kdWk-R-67" style="edgeStyle=orthogonalEdgeStyle;rounded=0;orthogonalLoop=1;jettySize=auto;html=1;exitX=0.5;exitY=1;exitDx=0;exitDy=0;entryX=0.5;entryY=0;entryDx=0;entryDy=0;" parent="1" source="A67gDG7ZLTh7L_kdWk-R-49" target="A67gDG7ZLTh7L_kdWk-R-50" edge="1">
          <mxGeometry relative="1" as="geometry" />
        </mxCell>
        <mxCell id="A67gDG7ZLTh7L_kdWk-R-49" value="&lt;p data-pm-slice=&quot;1 1 []&quot;&gt;if weather == snowy&lt;br&gt;&lt;/p&gt;" style="rhombus;whiteSpace=wrap;html=1;" parent="1" vertex="1">
          <mxGeometry x="514.81" y="548" width="125.09" height="50.99" as="geometry" />
        </mxCell>
        <mxCell id="A67gDG7ZLTh7L_kdWk-R-68" style="edgeStyle=orthogonalEdgeStyle;rounded=0;orthogonalLoop=1;jettySize=auto;html=1;exitX=0.5;exitY=1;exitDx=0;exitDy=0;entryX=0.5;entryY=0;entryDx=0;entryDy=0;" parent="1" source="A67gDG7ZLTh7L_kdWk-R-50" target="A67gDG7ZLTh7L_kdWk-R-51" edge="1">
          <mxGeometry relative="1" as="geometry" />
        </mxCell>
        <mxCell id="A67gDG7ZLTh7L_kdWk-R-50" value="&lt;div&gt;Output&amp;nbsp;&lt;/div&gt;&lt;div&gt;&quot;Як щодо сніговика?&quot;&lt;/div&gt;" style="shape=parallelogram;perimeter=parallelogramPerimeter;whiteSpace=wrap;html=1;fixedSize=1;" parent="1" vertex="1">
          <mxGeometry x="509.55" y="610.74" width="135.6" height="40" as="geometry" />
        </mxCell>
        <mxCell id="A67gDG7ZLTh7L_kdWk-R-75" style="edgeStyle=orthogonalEdgeStyle;rounded=0;orthogonalLoop=1;jettySize=auto;html=1;exitX=0.5;exitY=1;exitDx=0;exitDy=0;" parent="1" source="A67gDG7ZLTh7L_kdWk-R-51" edge="1">
          <mxGeometry relative="1" as="geometry">
            <mxPoint x="577" y="710" as="targetPoint" />
          </mxGeometry>
        </mxCell>
        <mxCell id="A67gDG7ZLTh7L_kdWk-R-51" value="shoes_choice = 4" style="rounded=0;whiteSpace=wrap;html=1;" parent="1" vertex="1">
          <mxGeometry x="536.23" y="660.74" width="82.24" height="30" as="geometry" />
        </mxCell>
        <mxCell id="A67gDG7ZLTh7L_kdWk-R-69" style="edgeStyle=orthogonalEdgeStyle;rounded=0;orthogonalLoop=1;jettySize=auto;html=1;exitX=0.5;exitY=1;exitDx=0;exitDy=0;entryX=0.5;entryY=0;entryDx=0;entryDy=0;" parent="1" source="A67gDG7ZLTh7L_kdWk-R-52" target="A67gDG7ZLTh7L_kdWk-R-53" edge="1">
          <mxGeometry relative="1" as="geometry" />
        </mxCell>
        <mxCell id="A67gDG7ZLTh7L_kdWk-R-52" value="&lt;p data-pm-slice=&quot;1 1 []&quot;&gt;if weather == windy&lt;br&gt;&lt;/p&gt;" style="rhombus;whiteSpace=wrap;html=1;" parent="1" vertex="1">
          <mxGeometry x="654.81" y="548" width="125.09" height="50.99" as="geometry" />
        </mxCell>
        <mxCell id="A67gDG7ZLTh7L_kdWk-R-70" style="edgeStyle=orthogonalEdgeStyle;rounded=0;orthogonalLoop=1;jettySize=auto;html=1;exitX=0.5;exitY=1;exitDx=0;exitDy=0;entryX=0.5;entryY=0;entryDx=0;entryDy=0;" parent="1" source="A67gDG7ZLTh7L_kdWk-R-53" target="A67gDG7ZLTh7L_kdWk-R-54" edge="1">
          <mxGeometry relative="1" as="geometry" />
        </mxCell>
        <mxCell id="A67gDG7ZLTh7L_kdWk-R-53" value="&lt;div&gt;Output&amp;nbsp;&lt;/div&gt;&lt;div&gt;&quot;Запустіть повітряного змія!&quot;&lt;/div&gt;" style="shape=parallelogram;perimeter=parallelogramPerimeter;whiteSpace=wrap;html=1;fixedSize=1;" parent="1" vertex="1">
          <mxGeometry x="649.55" y="610.74" width="135.6" height="40" as="geometry" />
        </mxCell>
        <mxCell id="A67gDG7ZLTh7L_kdWk-R-74" style="edgeStyle=orthogonalEdgeStyle;rounded=0;orthogonalLoop=1;jettySize=auto;html=1;exitX=0.5;exitY=1;exitDx=0;exitDy=0;entryX=0.5;entryY=0;entryDx=0;entryDy=0;" parent="1" source="A67gDG7ZLTh7L_kdWk-R-54" target="A67gDG7ZLTh7L_kdWk-R-71" edge="1">
          <mxGeometry relative="1" as="geometry" />
        </mxCell>
        <mxCell id="A67gDG7ZLTh7L_kdWk-R-54" value="shoes_choice = 5" style="rounded=0;whiteSpace=wrap;html=1;" parent="1" vertex="1">
          <mxGeometry x="676.2299999999999" y="660.74" width="82.24" height="30" as="geometry" />
        </mxCell>
        <mxCell id="A67gDG7ZLTh7L_kdWk-R-78" style="edgeStyle=orthogonalEdgeStyle;rounded=0;orthogonalLoop=1;jettySize=auto;html=1;exitX=0;exitY=0.5;exitDx=0;exitDy=0;entryX=1;entryY=0.5;entryDx=0;entryDy=0;" parent="1" source="A67gDG7ZLTh7L_kdWk-R-71" target="A67gDG7ZLTh7L_kdWk-R-77" edge="1">
          <mxGeometry relative="1" as="geometry" />
        </mxCell>
        <mxCell id="A67gDG7ZLTh7L_kdWk-R-71" value="Output &quot;Рекомендація щодо взуття:&quot;" style="shape=parallelogram;perimeter=parallelogramPerimeter;whiteSpace=wrap;html=1;fixedSize=1;" parent="1" vertex="1">
          <mxGeometry x="628.3" y="730" width="171.7" height="53.43" as="geometry" />
        </mxCell>
        <mxCell id="A67gDG7ZLTh7L_kdWk-R-88" style="edgeStyle=orthogonalEdgeStyle;rounded=0;orthogonalLoop=1;jettySize=auto;html=1;exitX=0;exitY=0.5;exitDx=0;exitDy=0;" parent="1" source="A67gDG7ZLTh7L_kdWk-R-77" target="A67gDG7ZLTh7L_kdWk-R-79" edge="1">
          <mxGeometry relative="1" as="geometry" />
        </mxCell>
        <mxCell id="A67gDG7ZLTh7L_kdWk-R-77" value="switch(shoes_choice)" style="rounded=0;whiteSpace=wrap;html=1;" parent="1" vertex="1">
          <mxGeometry x="478.47" y="737.57" width="123.97" height="38.29" as="geometry" />
        </mxCell>
        <mxCell id="A67gDG7ZLTh7L_kdWk-R-89" style="edgeStyle=orthogonalEdgeStyle;rounded=0;orthogonalLoop=1;jettySize=auto;html=1;exitX=0;exitY=0.5;exitDx=0;exitDy=0;" parent="1" source="A67gDG7ZLTh7L_kdWk-R-79" edge="1">
          <mxGeometry relative="1" as="geometry">
            <mxPoint x="390" y="758" as="targetPoint" />
          </mxGeometry>
        </mxCell>
        <mxCell id="A67gDG7ZLTh7L_kdWk-R-99" style="edgeStyle=orthogonalEdgeStyle;rounded=0;orthogonalLoop=1;jettySize=auto;html=1;exitX=0.5;exitY=1;exitDx=0;exitDy=0;entryX=0.5;entryY=0;entryDx=0;entryDy=0;" parent="1" source="A67gDG7ZLTh7L_kdWk-R-79" target="A67gDG7ZLTh7L_kdWk-R-93" edge="1">
          <mxGeometry relative="1" as="geometry" />
        </mxCell>
        <mxCell id="A67gDG7ZLTh7L_kdWk-R-79" value="case 1" style="rhombus;whiteSpace=wrap;html=1;" parent="1" vertex="1">
          <mxGeometry x="403.43" y="730" width="56.57" height="56.57" as="geometry" />
        </mxCell>
        <mxCell id="A67gDG7ZLTh7L_kdWk-R-90" style="edgeStyle=orthogonalEdgeStyle;rounded=0;orthogonalLoop=1;jettySize=auto;html=1;exitX=0;exitY=0.5;exitDx=0;exitDy=0;entryX=1;entryY=0.5;entryDx=0;entryDy=0;" parent="1" source="A67gDG7ZLTh7L_kdWk-R-80" target="A67gDG7ZLTh7L_kdWk-R-82" edge="1">
          <mxGeometry relative="1" as="geometry" />
        </mxCell>
        <mxCell id="A67gDG7ZLTh7L_kdWk-R-100" style="edgeStyle=orthogonalEdgeStyle;rounded=0;orthogonalLoop=1;jettySize=auto;html=1;exitX=0.5;exitY=1;exitDx=0;exitDy=0;entryX=0.5;entryY=0;entryDx=0;entryDy=0;" parent="1" source="A67gDG7ZLTh7L_kdWk-R-80" target="A67gDG7ZLTh7L_kdWk-R-94" edge="1">
          <mxGeometry relative="1" as="geometry" />
        </mxCell>
        <mxCell id="A67gDG7ZLTh7L_kdWk-R-80" value="case 2" style="rhombus;whiteSpace=wrap;html=1;" parent="1" vertex="1">
          <mxGeometry x="326.76" y="730" width="56.57" height="56.57" as="geometry" />
        </mxCell>
        <mxCell id="A67gDG7ZLTh7L_kdWk-R-91" style="edgeStyle=orthogonalEdgeStyle;rounded=0;orthogonalLoop=1;jettySize=auto;html=1;exitX=0;exitY=0.5;exitDx=0;exitDy=0;entryX=1;entryY=0.5;entryDx=0;entryDy=0;" parent="1" source="A67gDG7ZLTh7L_kdWk-R-82" target="A67gDG7ZLTh7L_kdWk-R-83" edge="1">
          <mxGeometry relative="1" as="geometry" />
        </mxCell>
        <mxCell id="A67gDG7ZLTh7L_kdWk-R-101" style="edgeStyle=orthogonalEdgeStyle;rounded=0;orthogonalLoop=1;jettySize=auto;html=1;exitX=0.5;exitY=1;exitDx=0;exitDy=0;entryX=0.5;entryY=0;entryDx=0;entryDy=0;" parent="1" source="A67gDG7ZLTh7L_kdWk-R-82" target="A67gDG7ZLTh7L_kdWk-R-96" edge="1">
          <mxGeometry relative="1" as="geometry" />
        </mxCell>
        <mxCell id="A67gDG7ZLTh7L_kdWk-R-82" value="case 3" style="rhombus;whiteSpace=wrap;html=1;" parent="1" vertex="1">
          <mxGeometry x="250.62999999999997" y="730" width="56.57" height="56.57" as="geometry" />
        </mxCell>
        <mxCell id="A67gDG7ZLTh7L_kdWk-R-92" style="edgeStyle=orthogonalEdgeStyle;rounded=0;orthogonalLoop=1;jettySize=auto;html=1;exitX=0;exitY=0.5;exitDx=0;exitDy=0;entryX=1;entryY=0.5;entryDx=0;entryDy=0;" parent="1" source="A67gDG7ZLTh7L_kdWk-R-83" target="A67gDG7ZLTh7L_kdWk-R-84" edge="1">
          <mxGeometry relative="1" as="geometry" />
        </mxCell>
        <mxCell id="A67gDG7ZLTh7L_kdWk-R-83" value="case 4" style="rhombus;whiteSpace=wrap;html=1;" parent="1" vertex="1">
          <mxGeometry x="167.38" y="730" width="56.57" height="56.57" as="geometry" />
        </mxCell>
        <mxCell id="A67gDG7ZLTh7L_kdWk-R-103" style="edgeStyle=orthogonalEdgeStyle;rounded=0;orthogonalLoop=1;jettySize=auto;html=1;exitX=0.5;exitY=1;exitDx=0;exitDy=0;entryX=0.5;entryY=0;entryDx=0;entryDy=0;" parent="1" source="A67gDG7ZLTh7L_kdWk-R-84" target="A67gDG7ZLTh7L_kdWk-R-98" edge="1">
          <mxGeometry relative="1" as="geometry" />
        </mxCell>
        <mxCell id="A67gDG7ZLTh7L_kdWk-R-84" value="case 5" style="rhombus;whiteSpace=wrap;html=1;" parent="1" vertex="1">
          <mxGeometry x="80" y="730" width="56.57" height="56.57" as="geometry" />
        </mxCell>
        <mxCell id="A67gDG7ZLTh7L_kdWk-R-114" style="edgeStyle=orthogonalEdgeStyle;rounded=0;orthogonalLoop=1;jettySize=auto;html=1;exitX=0.5;exitY=1;exitDx=0;exitDy=0;" parent="1" source="A67gDG7ZLTh7L_kdWk-R-93" edge="1">
          <mxGeometry relative="1" as="geometry">
            <mxPoint x="432" y="865" as="targetPoint" />
          </mxGeometry>
        </mxCell>
        <mxCell id="A67gDG7ZLTh7L_kdWk-R-93" value="Output &quot;Кросівки&quot;" style="shape=parallelogram;perimeter=parallelogramPerimeter;whiteSpace=wrap;html=1;fixedSize=1;" parent="1" vertex="1">
          <mxGeometry x="395.86" y="800" width="71.72" height="40" as="geometry" />
        </mxCell>
        <mxCell id="A67gDG7ZLTh7L_kdWk-R-113" style="edgeStyle=orthogonalEdgeStyle;rounded=0;orthogonalLoop=1;jettySize=auto;html=1;exitX=0.5;exitY=1;exitDx=0;exitDy=0;" parent="1" source="A67gDG7ZLTh7L_kdWk-R-94" edge="1">
          <mxGeometry relative="1" as="geometry">
            <mxPoint x="356" y="866" as="targetPoint" />
          </mxGeometry>
        </mxCell>
        <mxCell id="A67gDG7ZLTh7L_kdWk-R-94" value="Output &quot;Чоботи&quot;" style="shape=parallelogram;perimeter=parallelogramPerimeter;whiteSpace=wrap;html=1;fixedSize=1;" parent="1" vertex="1">
          <mxGeometry x="315.84999999999997" y="800" width="75.85" height="40" as="geometry" />
        </mxCell>
        <mxCell id="A67gDG7ZLTh7L_kdWk-R-111" style="edgeStyle=orthogonalEdgeStyle;rounded=0;orthogonalLoop=1;jettySize=auto;html=1;exitX=0.5;exitY=1;exitDx=0;exitDy=0;" parent="1" source="A67gDG7ZLTh7L_kdWk-R-96" edge="1">
          <mxGeometry relative="1" as="geometry">
            <mxPoint x="279" y="864" as="targetPoint" />
          </mxGeometry>
        </mxCell>
        <mxCell id="A67gDG7ZLTh7L_kdWk-R-96" value="Output &quot;Будь-яке взуття&quot;" style="shape=parallelogram;perimeter=parallelogramPerimeter;whiteSpace=wrap;html=1;fixedSize=1;" parent="1" vertex="1">
          <mxGeometry x="230" y="800" width="92.25" height="40" as="geometry" />
        </mxCell>
        <mxCell id="A67gDG7ZLTh7L_kdWk-R-110" style="edgeStyle=orthogonalEdgeStyle;rounded=0;orthogonalLoop=1;jettySize=auto;html=1;exitX=0.5;exitY=1;exitDx=0;exitDy=0;" parent="1" source="A67gDG7ZLTh7L_kdWk-R-97" edge="1">
          <mxGeometry relative="1" as="geometry">
            <mxPoint x="190" y="866" as="targetPoint" />
          </mxGeometry>
        </mxCell>
        <mxCell id="A67gDG7ZLTh7L_kdWk-R-97" value="Output &quot;Черевики&quot;" style="shape=parallelogram;perimeter=parallelogramPerimeter;whiteSpace=wrap;html=1;fixedSize=1;" parent="1" vertex="1">
          <mxGeometry x="149.21000000000004" y="800" width="80" height="40" as="geometry" />
        </mxCell>
        <mxCell id="A67gDG7ZLTh7L_kdWk-R-105" style="edgeStyle=orthogonalEdgeStyle;rounded=0;orthogonalLoop=1;jettySize=auto;html=1;exitX=0.5;exitY=1;exitDx=0;exitDy=0;" parent="1" source="A67gDG7ZLTh7L_kdWk-R-98" target="A67gDG7ZLTh7L_kdWk-R-104" edge="1">
          <mxGeometry relative="1" as="geometry" />
        </mxCell>
        <mxCell id="A67gDG7ZLTh7L_kdWk-R-98" value="Output &quot;Щось міцне&quot;" style="shape=parallelogram;perimeter=parallelogramPerimeter;whiteSpace=wrap;html=1;fixedSize=1;" parent="1" vertex="1">
          <mxGeometry x="59.78" y="800" width="97" height="40" as="geometry" />
        </mxCell>
        <mxCell id="A67gDG7ZLTh7L_kdWk-R-102" style="edgeStyle=orthogonalEdgeStyle;rounded=0;orthogonalLoop=1;jettySize=auto;html=1;exitX=0.5;exitY=1;exitDx=0;exitDy=0;entryX=0.61;entryY=-0.05;entryDx=0;entryDy=0;entryPerimeter=0;" parent="1" source="A67gDG7ZLTh7L_kdWk-R-83" target="A67gDG7ZLTh7L_kdWk-R-97" edge="1">
          <mxGeometry relative="1" as="geometry" />
        </mxCell>
        <mxCell id="A67gDG7ZLTh7L_kdWk-R-104" value="Finish" style="ellipse;whiteSpace=wrap;html=1;" parent="1" vertex="1">
          <mxGeometry x="570" y="830" width="130" height="70" as="geometry" />
        </mxCell>
        <mxCell id="A67gDG7ZLTh7L_kdWk-R-121" value="&lt;font style=&quot;font-size: 8px;&quot;&gt;T&lt;/font&gt;" style="text;html=1;align=center;verticalAlign=middle;whiteSpace=wrap;rounded=0;" parent="1" vertex="1">
          <mxGeometry x="499.9" y="195" width="35" height="30" as="geometry" />
        </mxCell>
        <mxCell id="A67gDG7ZLTh7L_kdWk-R-122" value="&lt;font style=&quot;font-size: 8px;&quot;&gt;T&lt;/font&gt;" style="text;html=1;align=center;verticalAlign=middle;whiteSpace=wrap;rounded=0;" parent="1" vertex="1">
          <mxGeometry x="319.29999999999995" y="370" width="35" height="30" as="geometry" />
        </mxCell>
        <mxCell id="A67gDG7ZLTh7L_kdWk-R-123" value="&lt;font style=&quot;font-size: 8px;&quot;&gt;T&lt;/font&gt;" style="text;html=1;align=center;verticalAlign=middle;whiteSpace=wrap;rounded=0;" parent="1" vertex="1">
          <mxGeometry x="101.57" y="585" width="35" height="30" as="geometry" />
        </mxCell>
        <mxCell id="A67gDG7ZLTh7L_kdWk-R-124" value="&lt;font style=&quot;font-size: 8px;&quot;&gt;T&lt;/font&gt;" style="text;html=1;align=center;verticalAlign=middle;whiteSpace=wrap;rounded=0;" parent="1" vertex="1">
          <mxGeometry x="258.62" y="585" width="35" height="30" as="geometry" />
        </mxCell>
        <mxCell id="A67gDG7ZLTh7L_kdWk-R-125" value="&lt;font style=&quot;font-size: 8px;&quot;&gt;T&lt;/font&gt;" style="text;html=1;align=center;verticalAlign=middle;whiteSpace=wrap;rounded=0;" parent="1" vertex="1">
          <mxGeometry x="403.42999999999995" y="585" width="35" height="30" as="geometry" />
        </mxCell>
        <mxCell id="A67gDG7ZLTh7L_kdWk-R-126" value="&lt;font style=&quot;font-size: 8px;&quot;&gt;T&lt;/font&gt;" style="text;html=1;align=center;verticalAlign=middle;whiteSpace=wrap;rounded=0;" parent="1" vertex="1">
          <mxGeometry x="540" y="585" width="35" height="30" as="geometry" />
        </mxCell>
        <mxCell id="A67gDG7ZLTh7L_kdWk-R-127" value="&lt;font style=&quot;font-size: 8px;&quot;&gt;T&lt;/font&gt;" style="text;html=1;align=center;verticalAlign=middle;whiteSpace=wrap;rounded=0;" parent="1" vertex="1">
          <mxGeometry x="680" y="585" width="35" height="30" as="geometry" />
        </mxCell>
        <mxCell id="A67gDG7ZLTh7L_kdWk-R-128" value="&lt;font style=&quot;font-size: 8px;&quot;&gt;T&lt;/font&gt;" style="text;html=1;align=center;verticalAlign=middle;whiteSpace=wrap;rounded=0;" parent="1" vertex="1">
          <mxGeometry x="432.58" y="775.86" width="35" height="30" as="geometry" />
        </mxCell>
        <mxCell id="A67gDG7ZLTh7L_kdWk-R-129" value="&lt;font style=&quot;font-size: 8px;&quot;&gt;T&lt;/font&gt;" style="text;html=1;align=center;verticalAlign=middle;whiteSpace=wrap;rounded=0;" parent="1" vertex="1">
          <mxGeometry x="354.29999999999995" y="775.86" width="35" height="30" as="geometry" />
        </mxCell>
        <mxCell id="A67gDG7ZLTh7L_kdWk-R-130" value="&lt;font style=&quot;font-size: 8px;&quot;&gt;T&lt;/font&gt;" style="text;html=1;align=center;verticalAlign=middle;whiteSpace=wrap;rounded=0;" parent="1" vertex="1">
          <mxGeometry x="276.87" y="775.86" width="35" height="30" as="geometry" />
        </mxCell>
        <mxCell id="A67gDG7ZLTh7L_kdWk-R-131" value="&lt;font style=&quot;font-size: 8px;&quot;&gt;T&lt;/font&gt;" style="text;html=1;align=center;verticalAlign=middle;whiteSpace=wrap;rounded=0;" parent="1" vertex="1">
          <mxGeometry x="197.34999999999997" y="775.86" width="35" height="30" as="geometry" />
        </mxCell>
        <mxCell id="A67gDG7ZLTh7L_kdWk-R-132" value="&lt;font style=&quot;font-size: 8px;&quot;&gt;T&lt;/font&gt;" style="text;html=1;align=center;verticalAlign=middle;whiteSpace=wrap;rounded=0;" parent="1" vertex="1">
          <mxGeometry x="114.20999999999998" y="775.86" width="35" height="30" as="geometry" />
        </mxCell>
        <mxCell id="A67gDG7ZLTh7L_kdWk-R-133" value="&lt;font style=&quot;font-size: 8px;&quot;&gt;F&lt;/font&gt;" style="text;html=1;align=center;verticalAlign=middle;whiteSpace=wrap;rounded=0;" parent="1" vertex="1">
          <mxGeometry x="383.33" y="730" width="35" height="30" as="geometry" />
        </mxCell>
        <mxCell id="A67gDG7ZLTh7L_kdWk-R-135" value="&lt;font style=&quot;font-size: 8px;&quot;&gt;F&lt;/font&gt;" style="text;html=1;align=center;verticalAlign=middle;whiteSpace=wrap;rounded=0;" parent="1" vertex="1">
          <mxGeometry x="297.87" y="730" width="35" height="30" as="geometry" />
        </mxCell>
        <mxCell id="A67gDG7ZLTh7L_kdWk-R-136" value="&lt;font style=&quot;font-size: 8px;&quot;&gt;F&lt;/font&gt;" style="text;html=1;align=center;verticalAlign=middle;whiteSpace=wrap;rounded=0;" parent="1" vertex="1">
          <mxGeometry x="215.63" y="730" width="35" height="30" as="geometry" />
        </mxCell>
        <mxCell id="A67gDG7ZLTh7L_kdWk-R-137" value="&lt;font style=&quot;font-size: 8px;&quot;&gt;F&lt;/font&gt;" style="text;html=1;align=center;verticalAlign=middle;whiteSpace=wrap;rounded=0;" parent="1" vertex="1">
          <mxGeometry x="132.38" y="730" width="35" height="30" as="geometry" />
        </mxCell>
        <mxCell id="A67gDG7ZLTh7L_kdWk-R-138" value="&lt;font style=&quot;font-size: 8px;&quot;&gt;F&lt;/font&gt;" style="text;html=1;align=center;verticalAlign=middle;whiteSpace=wrap;rounded=0;" parent="1" vertex="1">
          <mxGeometry x="188.95" y="548" width="35" height="30" as="geometry" />
        </mxCell>
        <mxCell id="A67gDG7ZLTh7L_kdWk-R-139" value="&lt;font style=&quot;font-size: 8px;&quot;&gt;F&lt;/font&gt;" style="text;html=1;align=center;verticalAlign=middle;whiteSpace=wrap;rounded=0;" parent="1" vertex="1">
          <mxGeometry x="341.45" y="548" width="35" height="30" as="geometry" />
        </mxCell>
        <mxCell id="A67gDG7ZLTh7L_kdWk-R-140" value="&lt;font style=&quot;font-size: 8px;&quot;&gt;F&lt;/font&gt;" style="text;html=1;align=center;verticalAlign=middle;whiteSpace=wrap;rounded=0;" parent="1" vertex="1">
          <mxGeometry x="479.99999999999994" y="548" width="35" height="30" as="geometry" />
        </mxCell>
        <mxCell id="A67gDG7ZLTh7L_kdWk-R-141" value="&lt;font style=&quot;font-size: 8px;&quot;&gt;F&lt;/font&gt;" style="text;html=1;align=center;verticalAlign=middle;whiteSpace=wrap;rounded=0;" parent="1" vertex="1">
          <mxGeometry x="628.3" y="548" width="35" height="30" as="geometry" />
        </mxCell>
        <mxCell id="A67gDG7ZLTh7L_kdWk-R-142" value="&lt;font style=&quot;font-size: 8px;&quot;&gt;F&lt;/font&gt;" style="text;html=1;align=center;verticalAlign=middle;whiteSpace=wrap;rounded=0;" parent="1" vertex="1">
          <mxGeometry x="480" y="370" width="35" height="30" as="geometry" />
        </mxCell>
        <mxCell id="A67gDG7ZLTh7L_kdWk-R-145" value="&lt;font style=&quot;font-size: 8px;&quot;&gt;F&lt;/font&gt;" style="text;html=1;align=center;verticalAlign=middle;whiteSpace=wrap;rounded=0;" parent="1" vertex="1">
          <mxGeometry x="356.7" y="220" width="35" height="30" as="geometry" />
        </mxCell>
      </root>
    </mxGraphModel>
  </diagram>
</mxfile>
